<?xml version="1.0" standalone="no"?><!DOCTYPE svg PUBLIC "-//W3C//DTD SVG 1.1//EN" "http://www.w3.org/Graphics/SVG/1.1/DTD/svg11.dtd"><svg xmlns:xlink="http://www.w3.org/1999/xlink" version="1.1" class="highcharts-root" style="font-family:&quot;Lucida Grande&quot;, &quot;Lucida Sans Unicode&quot;, Arial, Helvetica, sans-serif;font-size:12px;" xmlns="http://www.w3.org/2000/svg" width="600" height="350" viewBox="0 0 600 350"><desc>Created with Highcharts 8.2.2</desc><defs><clipPath id="highcharts-h0idhhm-48-"><rect x="0" y="0" width="533" height="264" fill="none"></rect></clipPath></defs><rect fill="#ffffff" class="highcharts-background" x="0" y="0" width="600" height="350" rx="0" ry="0"></rect><rect fill="none" class="highcharts-plot-background" x="57" y="10" width="533" height="264"></rect><g class="highcharts-pane-group" data-z-index="0"></g><g class="highcharts-grid highcharts-xaxis-grid" data-z-index="1"><path fill="none" data-z-index="1" class="highcharts-grid-line" d="M 111.5 10 L 111.5 274" opacity="1"></path><path fill="none" data-z-index="1" class="highcharts-grid-line" d="M 214.5 10 L 214.5 274" opacity="1"></path><path fill="none" data-z-index="1" class="highcharts-grid-line" d="M 315.5 10 L 315.5 274" opacity="1"></path><path fill="none" data-z-index="1" class="highcharts-grid-line" d="M 418.5 10 L 418.5 274" opacity="1"></path><path fill="none" data-z-index="1" class="highcharts-grid-line" d="M 520.5 10 L 520.5 274" opacity="1"></path></g><g class="highcharts-grid highcharts-yaxis-grid" data-z-index="1"><path fill="none" stroke="#e6e6e6" stroke-width="1" data-z-index="1" class="highcharts-grid-line" d="M 57 274.5 L 590 274.5" opacity="1"></path><path fill="none" stroke="#e6e6e6" stroke-width="1" data-z-index="1" class="highcharts-grid-line" d="M 57 230.5 L 590 230.5" opacity="1"></path><path fill="none" stroke="#e6e6e6" stroke-width="1" data-z-index="1" class="highcharts-grid-line" d="M 57 186.5 L 590 186.5" opacity="1"></path><path fill="none" stroke="#e6e6e6" stroke-width="1" data-z-index="1" class="highcharts-grid-line" d="M 57 142.5 L 590 142.5" opacity="1"></path><path fill="none" stroke="#e6e6e6" stroke-width="1" data-z-index="1" class="highcharts-grid-line" d="M 57 98.5 L 590 98.5" opacity="1"></path><path fill="none" stroke="#e6e6e6" stroke-width="1" data-z-index="1" class="highcharts-grid-line" d="M 57 54.5 L 590 54.5" opacity="1"></path><path fill="none" stroke="#e6e6e6" stroke-width="1" data-z-index="1" class="highcharts-grid-line" d="M 57 9.5 L 590 9.5" opacity="1"></path></g><rect fill="none" class="highcharts-plot-border" data-z-index="1" x="57" y="10" width="533" height="264"></rect><g class="highcharts-axis highcharts-xaxis" data-z-index="2"><path fill="none" class="highcharts-tick" stroke="#ccd6eb" stroke-width="1" d="M 111.5 274 L 111.5 284" opacity="1"></path><path fill="none" class="highcharts-tick" stroke="#ccd6eb" stroke-width="1" d="M 214.5 274 L 214.5 284" opacity="1"></path><path fill="none" class="highcharts-tick" stroke="#ccd6eb" stroke-width="1" d="M 315.5 274 L 315.5 284" opacity="1"></path><path fill="none" class="highcharts-tick" stroke="#ccd6eb" stroke-width="1" d="M 418.5 274 L 418.5 284" opacity="1"></path><path fill="none" class="highcharts-tick" stroke="#ccd6eb" stroke-width="1" d="M 520.5 274 L 520.5 284" opacity="1"></path><path fill="none" class="highcharts-axis-line" stroke="#ccd6eb" stroke-width="1" data-z-index="7" d="M 57 274.5 L 590 274.5"></path></g><g class="highcharts-axis highcharts-yaxis" data-z-index="2"><text x="24.616666793823242" data-z-index="7" text-anchor="middle" transform="translate(0,0) rotate(270 24.616666793823242 142)" class="highcharts-axis-title" style="color:#666666;font-size:12px;fill:#666666;" y="142"><tspan>SDR (VOCALS)</tspan></text><path fill="none" class="highcharts-axis-line" data-z-index="7" d="M 57 10 L 57 274"></path></g><g class="highcharts-series-group" data-z-index="3"><g class="highcharts-series highcharts-series-0 highcharts-scatter-series" data-z-index="1" opacity="1" transform="translate(57,10) scale(1 1)" clip-path="url(#highcharts-h0idhhm-48-)"></g><g class="highcharts-markers highcharts-series-0 highcharts-scatter-series" data-z-index="1" opacity="1" transform="translate(57,10) scale(1 1)" clip-path="none"><path fill="#ddd" d="M 295 79 A 4 4 0 1 1 295.00399999933336 78.99999800000016 Z" opacity="1" class="highcharts-point"></path><path fill="#ddd" d="M 297 78 A 4 4 0 1 1 297.00399999933336 77.99999800000016 Z" opacity="1" class="highcharts-point"></path><path fill="#ddd" d="M 388 74 A 4 4 0 1 1 388.00399999933336 73.99999800000016 Z" opacity="1" class="highcharts-point"></path><path fill="#ddd" d="M 519 65 A 4 4 0 1 1 519.0039999993334 64.99999800000016 Z" opacity="1" class="highcharts-point"></path></g><g class="highcharts-series highcharts-series-1 highcharts-line-series" data-z-index="2" opacity="1" transform="translate(57,10) scale(1 1)" clip-path="url(#highcharts-h0idhhm-48-)"><path fill="none" d="M 5.2254901960784 209 L 121.84587225448 199.76 L 295.09442060086 52.360000000000014 L 518.2430362703 33.44 L 527.77450980392 29.47999999999999" class="highcharts-graph" data-z-index="1" stroke="#21ccc7" stroke-width="2" stroke-linejoin="round" stroke-linecap="round"></path></g><g class="highcharts-markers highcharts-series-1 highcharts-line-series" data-z-index="2" opacity="1" transform="translate(57,10) scale(1 1)" clip-path="none"><path fill="#21ccc7" d="M 5 213 A 4 4 0 1 1 5.0039999993333355 212.99999800000018 Z" opacity="1" class="highcharts-point"></path><path fill="#21ccc7" d="M 121 204 A 4 4 0 1 1 121.00399999933333 203.99999800000018 Z" opacity="1" class="highcharts-point"></path><path fill="#21ccc7" d="M 295 56 A 4 4 0 1 1 295.00399999933336 55.99999800000017 Z" opacity="1" class="highcharts-point"></path><path fill="#21ccc7" d="M 518 37 A 4 4 0 1 1 518.0039999993334 36.99999800000017 Z" opacity="1" class="highcharts-point"></path><path fill="#21ccc7" d="M 527 33 A 4 4 0 1 1 527.0039999993334 32.99999800000017 Z" opacity="1" class="highcharts-point"></path></g></g><g class="highcharts-data-labels highcharts-series-1 highcharts-line-series" data-z-index="3" opacity="1" transform="translate(57,10) scale(1 1)"><g class="highcharts-label highcharts-data-label highcharts-data-label-color-undefined" data-z-index="1" transform="translate(-5,187)"><text x="5" data-z-index="1" y="16" style="color:#4a4a4a;font-size:11px;font-weight:normal;fill:#4a4a4a;"><tspan x="5" y="16" class="highcharts-text-outline" fill="#FFFFFF" stroke="#FFFFFF" stroke-width="2px" stroke-linejoin="round" style="">STL2</tspan><tspan x="5" y="16">STL2</tspan></text></g><g class="highcharts-label highcharts-data-label highcharts-data-label-color-undefined" data-z-index="1" transform="translate(95,178)"><text x="5" data-z-index="1" y="16" style="color:#4a4a4a;font-size:11px;font-weight:normal;fill:#4a4a4a;"><tspan x="5" y="16" class="highcharts-text-outline" fill="#FFFFFF" stroke="#FFFFFF" stroke-width="2px" stroke-linejoin="round" style="">Wavenet</tspan><tspan x="5" y="16">Wavenet</tspan></text></g><g class="highcharts-label highcharts-data-label highcharts-data-label-color-undefined" data-z-index="1" transform="translate(259,30)"><text x="5" data-z-index="1" y="16" style="color:#4a4a4a;font-size:11px;font-weight:normal;fill:#4a4a4a;"><tspan x="5" y="16" class="highcharts-text-outline" fill="#FFFFFF" stroke="#FFFFFF" stroke-width="2px" stroke-linejoin="round" style="">Conv-TasNet</tspan><tspan x="5" y="16">Conv-TasNet</tspan></text></g><g class="highcharts-label highcharts-data-label highcharts-data-label-color-undefined" data-z-index="1" transform="translate(494,11)"><text x="5" data-z-index="1" y="16" style="color:#4a4a4a;font-size:11px;font-weight:normal;fill:#4a4a4a;"><tspan x="5" y="16" class="highcharts-text-outline" fill="#FFFFFF" stroke="#FFFFFF" stroke-width="2px" stroke-linejoin="round" style="">D3Net</tspan><tspan x="5" y="16">D3Net</tspan></text></g><g class="highcharts-label highcharts-data-label highcharts-data-label-color-undefined highcharts-data-label-hidden" data-z-index="1" transform="translate(445,7)" opacity="0" style="pointer-events:none;"><text x="5" data-z-index="1" y="16" style="color:#4a4a4a;font-size:11px;font-weight:normal;fill:#4a4a4a;"><tspan x="5" y="16" class="highcharts-text-outline" fill="#FFFFFF" stroke="#FFFFFF" stroke-width="2px" stroke-linejoin="round" style="">LaSAFT+GPoCM</tspan><tspan x="5" y="16">LaSAFT+GPoCM</tspan></text></g></g><text x="300" text-anchor="middle" class="highcharts-title" data-z-index="4" style="color:#333333;font-size:18px;fill:#333333;" y="24"></text><text x="300" text-anchor="middle" class="highcharts-subtitle" data-z-index="4" style="color:#666666;fill:#666666;" y="24"></text><text x="10" text-anchor="start" class="highcharts-caption" data-z-index="4" style="color:#666666;fill:#666666;" y="347"></text><g class="highcharts-legend" data-z-index="7" transform="translate(117,307)"><rect fill="#ffffff" class="highcharts-legend-box" rx="0" ry="0" x="0" y="0" width="365" height="28" visibility="visible"></rect><g data-z-index="1"><g><g class="highcharts-legend-item highcharts-scatter-series highcharts-color-undefined highcharts-series-0" data-z-index="1" transform="translate(8,3)"><path fill="none" d="M 0 13 L 16 13" class="highcharts-graph"></path><path fill="#ddd" d="M 8 17 A 4 4 0 1 1 8.003999999333336 16.99999800000017 Z" class="highcharts-point" opacity="1"></path><text x="21" style="color:#414141;cursor:pointer;font-size:14px;font-weight:normal;fill:#414141;" text-anchor="start" data-z-index="2" y="17"><tspan>Other models</tspan></text></g><g class="highcharts-legend-item highcharts-line-series highcharts-color-undefined highcharts-series-1" data-z-index="1" transform="translate(133.96666717529297,3)"><path fill="none" d="M 0 13 L 16 13" class="highcharts-graph" stroke="#21ccc7" stroke-width="2"></path><path fill="#21ccc7" d="M 8 17 A 4 4 0 1 1 8.003999999333336 16.99999800000017 Z" class="highcharts-point" opacity="1"></path><text x="21" y="17" style="color:#414141;cursor:pointer;font-size:14px;font-weight:normal;fill:#414141;" text-anchor="start" data-z-index="2"><tspan>Models with highest SDR (vocals)</tspan></text></g></g></g></g><g class="highcharts-axis-labels highcharts-xaxis-labels" data-z-index="7"><text x="111.5648826054" style="color:#666666;cursor:default;font-size:11px;fill:#666666;" text-anchor="middle" transform="translate(0,0)" y="293" opacity="1"><tspan>Jul '18</tspan></text><text x="214.72906673399" style="color:#666666;cursor:default;font-size:11px;fill:#666666;" text-anchor="middle" transform="translate(0,0)" y="293" opacity="1"><tspan>Jan '19</tspan></text><text x="316.21122612135" style="color:#666666;cursor:default;font-size:11px;fill:#666666;" text-anchor="middle" transform="translate(0,0)" y="293" opacity="1"><tspan>Jul '19</tspan></text><text x="419.37541024994" style="color:#666666;cursor:default;font-size:11px;fill:#666666;" text-anchor="middle" transform="translate(0,0)" y="293" opacity="1"><tspan>Jan '20</tspan></text><text x="521.41824455104" style="color:#666666;cursor:default;font-size:11px;fill:#666666;" text-anchor="middle" transform="translate(0,0)" y="293" opacity="1"><tspan>Jul '20</tspan></text></g><g class="highcharts-axis-labels highcharts-yaxis-labels" data-z-index="7"><text x="42" style="color:#666666;cursor:default;font-size:11px;fill:#666666;" text-anchor="end" transform="translate(0,0)" y="278" opacity="1">2</text><text x="42" style="color:#666666;cursor:default;font-size:11px;fill:#666666;" text-anchor="end" transform="translate(0,0)" y="234" opacity="1">3</text><text x="42" style="color:#666666;cursor:default;font-size:11px;fill:#666666;" text-anchor="end" transform="translate(0,0)" y="190" opacity="1">4</text><text x="42" style="color:#666666;cursor:default;font-size:11px;fill:#666666;" text-anchor="end" transform="translate(0,0)" y="146" opacity="1">5</text><text x="42" style="color:#666666;cursor:default;font-size:11px;fill:#666666;" text-anchor="end" transform="translate(0,0)" y="102" opacity="1">6</text><text x="42" style="color:#666666;cursor:default;font-size:11px;fill:#666666;" text-anchor="end" transform="translate(0,0)" y="58" opacity="1">7</text><text x="42" style="color:#666666;cursor:default;font-size:11px;fill:#666666;" text-anchor="end" transform="translate(0,0)" y="14" opacity="1">8</text></g></svg>