<?xml version="1.0" encoding="UTF-8" standalone="no"?>
<!DOCTYPE svg PUBLIC "-//W3C//DTD SVG 1.1//EN" "http://www.w3.org/Graphics/SVG/1.1/DTD/svg11.dtd">
<svg width="100%" height="100%" viewBox="0 0 927 600" version="1.1" xmlns="http://www.w3.org/2000/svg" xmlns:xlink="http://www.w3.org/1999/xlink" xml:space="preserve" xmlns:serif="http://www.serif.com/" style="fill-rule:evenodd;clip-rule:evenodd;">
    <g transform="matrix(1,0,0,1,22,598.202)">
        <text x="0px" y="0px" style="font-family:'HelveticaNeue', 'Helvetica Neue';font-size:14.667px;">2004</text>
    </g>
    <g transform="matrix(1,0,0,1,79,598.202)">
        <text x="0px" y="0px" style="font-family:'HelveticaNeue', 'Helvetica Neue';font-size:14.667px;">2005</text>
    </g>
    <g transform="matrix(1,0,0,1,136,598.202)">
        <text x="0px" y="0px" style="font-family:'HelveticaNeue', 'Helvetica Neue';font-size:14.667px;">2006</text>
    </g>
    <g transform="matrix(1,0,0,1,193,598.202)">
        <text x="0px" y="0px" style="font-family:'HelveticaNeue', 'Helvetica Neue';font-size:14.667px;">2007</text>
    </g>
    <g transform="matrix(1,0,0,1,249,598.202)">
        <text x="0px" y="0px" style="font-family:'HelveticaNeue', 'Helvetica Neue';font-size:14.667px;">2008</text>
    </g>
    <g transform="matrix(1,0,0,1,306,598.202)">
        <text x="0px" y="0px" style="font-family:'HelveticaNeue', 'Helvetica Neue';font-size:14.667px;">2009</text>
    </g>
    <g transform="matrix(1,0,0,1,363,598.202)">
        <text x="0px" y="0px" style="font-family:'HelveticaNeue', 'Helvetica Neue';font-size:14.667px;">2010</text>
    </g>
    <g transform="matrix(1,0,0,1,420,598.202)">
        <text x="0px" y="0px" style="font-family:'HelveticaNeue', 'Helvetica Neue';font-size:14.667px;">2011</text>
    </g>
    <g transform="matrix(1,0,0,1,477,598.202)">
        <text x="0px" y="0px" style="font-family:'HelveticaNeue', 'Helvetica Neue';font-size:14.667px;">2012</text>
    </g>
    <g transform="matrix(1,0,0,1,534,598.202)">
        <text x="0px" y="0px" style="font-family:'HelveticaNeue', 'Helvetica Neue';font-size:14.667px;">2013</text>
    </g>
    <g transform="matrix(1,0,0,1,591,598.202)">
        <text x="0px" y="0px" style="font-family:'HelveticaNeue', 'Helvetica Neue';font-size:14.667px;">2014</text>
    </g>
    <g transform="matrix(1,0,0,1,647,598.202)">
        <text x="0px" y="0px" style="font-family:'HelveticaNeue', 'Helvetica Neue';font-size:14.667px;">2015</text>
    </g>
    <g transform="matrix(1,0,0,1,704,598.202)">
        <text x="0px" y="0px" style="font-family:'HelveticaNeue', 'Helvetica Neue';font-size:14.667px;">2016</text>
    </g>
    <g transform="matrix(1,0,0,1,761,598.202)">
        <text x="0px" y="0px" style="font-family:'HelveticaNeue', 'Helvetica Neue';font-size:14.667px;">2017</text>
    </g>
    <g transform="matrix(1,0,0,1,818,598.202)">
        <text x="0px" y="0px" style="font-family:'HelveticaNeue', 'Helvetica Neue';font-size:14.667px;">2018</text>
    </g>
    <g transform="matrix(1,0,0,1,875,598.202)">
        <text x="0px" y="0px" style="font-family:'HelveticaNeue', 'Helvetica Neue';font-size:14.667px;">2019</text>
    </g>
    <g transform="matrix(1,0,0,-1,-0.0054,844.763)">
        <path d="M29.005,372.393L924.005,372.393" style="fill:none;fill-rule:nonzero;stroke:rgb(184,184,184);stroke-width:1px;"/>
    </g>
    <g transform="matrix(1,0,0,-1,-0.0054,620.763)">
        <path d="M29.005,260.393L924.005,260.393" style="fill:none;fill-rule:nonzero;stroke:rgb(184,184,184);stroke-width:1px;"/>
    </g>
    <g transform="matrix(1,0,0,-1,-0.0054,396.763)">
        <path d="M29.005,148.393L924.005,148.393" style="fill:none;fill-rule:nonzero;stroke:rgb(184,184,184);stroke-width:1px;"/>
    </g>
    <g transform="matrix(1,0,0,-1,-0.0054,174.763)">
        <path d="M29.005,37.393L924.005,37.393" style="fill:none;fill-rule:nonzero;stroke:rgb(184,184,184);stroke-width:1px;"/>
    </g>
    <g transform="matrix(1,0,0,-1,-0.0054,1065.76)">
        <path d="M28.505,483.393L923.505,483.393" style="fill:none;fill-rule:nonzero;stroke:black;stroke-width:1px;stroke-linecap:square;"/>
    </g>
    <g transform="matrix(1,0,0,-1,33.2363,579.189)">
        <path d="M0,13.397L4.737,8.932L9.474,13.397L14.21,13.397L18.947,17.863L23.684,13.397L28.421,4.466L33.157,8.932L37.894,13.397L42.631,8.932L47.368,8.932L52.104,4.466L56.841,8.932L61.578,13.397L66.315,0L71.051,4.466L75.788,8.932L80.525,4.466L85.262,0L89.998,4.466L94.735,0L99.472,4.466L104.209,0L108.945,4.466L127.892,4.466L132.629,0L137.366,4.466L146.839,4.466L151.576,8.932L156.313,8.932L161.05,4.466L170.523,4.466L175.26,8.932L184.733,8.932L189.47,4.466L194.207,4.466L198.944,0L203.68,4.466L213.154,4.466L217.891,8.932L222.628,4.466L232.101,4.466L236.838,8.932L241.574,4.466L260.521,4.466L265.258,0L269.995,8.932L274.732,4.466L307.889,4.466L312.626,0L317.363,0L322.099,4.466L326.836,8.932L331.573,4.466L341.046,4.466L345.783,8.932L350.52,4.466L355.257,4.466L359.993,8.932L364.73,4.466L369.467,4.466L374.204,8.932L378.94,4.466L383.677,8.932L388.414,8.932L393.151,4.466L397.887,4.466L402.624,8.932L416.834,8.932L421.571,4.466L435.781,4.466L440.518,8.932L492.623,8.932L497.359,13.397L502.096,22.329L506.833,13.397L516.306,13.397L521.043,22.329L525.78,22.329L530.516,26.795L535.253,26.795L539.99,22.329L544.727,22.329L549.464,26.795L554.2,31.26L563.674,31.26L568.411,35.726L573.147,40.192L577.884,35.726L582.621,40.192L587.357,40.192L592.094,35.726L596.831,40.192L601.568,44.657L606.305,44.657L611.041,49.123L615.778,49.123L620.515,71.452L625.252,75.918L629.988,80.383L634.725,84.849L639.462,80.383L644.199,84.849L648.935,98.246L653.672,93.781L658.409,89.315L663.146,93.781L667.882,107.178L672.619,120.575L677.356,116.109L682.093,142.904L686.829,142.904L691.566,187.561L696.303,192.027L701.04,178.629L705.776,187.561L710.513,169.698L715.25,178.629L719.987,196.492L724.723,218.821L729.46,241.15L734.197,263.478L738.934,281.341L743.67,294.739L748.407,325.999L753.144,330.464L757.881,339.396L762.617,339.396L767.354,330.464L772.091,352.793L776.828,370.656L781.564,392.985L786.301,415.313L791.038,401.916L795.775,410.848L800.511,397.45L805.248,419.779L809.985,406.382L814.722,419.779L819.458,392.985L824.195,375.122L828.932,379.588L833.669,406.382L838.406,442.108L843.142,415.313L847.879,375.122L852.616,406.382L857.352,424.245L862.089,419.779L866.826,433.176L871.563,419.779L876.3,410.848L881.036,415.313L885.773,401.916L890.51,433.176" style="fill:none;fill-rule:nonzero;stroke:rgb(0,162,255);stroke-width:4px;"/>
    </g>
    <g transform="matrix(6.6015e-16,-10.7811,0.122445,7.49759e-18,452.606,5888.76)">
        <path d="M494.155,414.783L494.155,466.606L493.37,397.508L494.155,328.41L494.155,380.233L509.74,380.233L509.74,414.783L494.155,414.783Z"/>
    </g>
    <g transform="matrix(5.09652e-16,-8.32325,0.122445,7.49759e-18,395.559,4676.63)">
        <path d="M494.387,414.783L494.387,466.606L493.37,397.508L494.387,328.41L494.387,380.233L509.74,380.233L509.74,414.783L494.387,414.783Z"/>
    </g>
    <g transform="matrix(6.6015e-16,-10.7811,0.122445,7.49759e-18,631.067,5800.52)">
        <path d="M494.155,414.783L494.155,466.606L493.37,397.508L494.155,328.41L494.155,380.233L509.74,380.233L509.74,414.783L494.155,414.783Z"/>
    </g>
    <g transform="matrix(6.6015e-16,-10.7811,0.122445,7.49759e-18,567.904,5854.56)">
        <path d="M494.155,414.783L494.155,466.606L493.37,397.508L494.155,328.41L494.155,380.233L509.74,380.233L509.74,414.783L494.155,414.783Z"/>
    </g>
    <g transform="matrix(6.6015e-16,-10.7811,0.122445,7.49759e-18,603.449,5823.54)">
        <path d="M494.155,414.783L494.155,466.606L493.37,397.508L494.155,328.41L494.155,380.233L509.74,380.233L509.74,414.783L494.155,414.783Z"/>
    </g>
    <g transform="matrix(6.6015e-16,-10.7811,0.122445,7.49759e-18,655.327,5767.67)">
        <path d="M494.155,414.783L494.155,466.606L493.37,397.508L494.155,328.41L494.155,380.233L509.74,380.233L509.74,414.783L494.155,414.783Z"/>
    </g>
    <g transform="matrix(5.09652e-16,-8.32325,0.122445,7.49759e-18,714.033,4435.56)">
        <path d="M494.387,414.783L494.387,466.606L493.37,397.508L494.387,328.41L494.387,380.233L509.74,380.233L509.74,414.783L494.387,414.783Z"/>
    </g>
    <g transform="matrix(1,0,0,1,496.125,385.613)">
        <text x="0px" y="0px" style="font-family:'ArialMT', 'Arial', sans-serif;font-size:14.667px;">Dropout</text>
    </g>
    <g transform="matrix(1,0,0,1,426.125,420.979)">
        <text x="0px" y="0px" style="font-family:'ArialMT', 'Arial', sans-serif;font-size:14.667px;">ReLU</text>
    </g>
    <g transform="matrix(1,0,0,1,666.125,293.784)">
        <text x="0px" y="0px" style="font-family:'ArialMT', 'Arial', sans-serif;font-size:14.667px;">VGG</text>
    </g>
    <g transform="matrix(1,0,0,1,600.207,351.411)">
        <text x="0px" y="0px" style="font-family:'ArialMT', 'Arial', sans-serif;font-size:14.667px;">GAN</text>
    </g>
    <g transform="matrix(1,0,0,1,628.25,321.519)">
        <text x="0px" y="0px" style="font-family:'ArialMT', 'Arial', sans-serif;font-size:14.667px;">CRNN</text>
    </g>
    <g transform="matrix(1,0,0,1,688.2,264.236)">
        <text x="0px" y="0px" style="font-family:'ArialMT', 'Arial', sans-serif;font-size:14.667px;">ADAM</text>
    </g>
    <g transform="matrix(1,0,0,1,232.013,-33.8406)">
        <g transform="matrix(1,0,0,1,501.279,201.101)">
            <text x="0px" y="0px" style="font-family:'ArialMT', 'Arial', sans-serif;font-size:14.667px;">Human</text>
        </g>
        <g>
            <g transform="matrix(1,0,0,1,501.279,216.247)">
                <text x="0px" y="0px" style="font-family:'ArialMT', 'Arial', sans-serif;font-size:14.667px;">level</text>
            </g>
            <g transform="matrix(1,0,0,1,534.709,216.247)">
                <text x="0px" y="0px" style="font-family:'ArialMT', 'Arial', sans-serif;font-size:14.667px;">ASR</text>
            </g>
        </g>
    </g>
    <g>
        <g>
            <g transform="matrix(1,0,0,1,54.74,96.076)">
                <text x="0px" y="0px" style="font-family:'Arial-BoldMT', 'Arial', sans-serif;font-weight:700;font-size:40px;">Google T</text>
            </g>
            <g transform="matrix(1,0,0,1,225.853,96.076)">
                <text x="0px" y="0px" style="font-family:'Arial-BoldMT', 'Arial', sans-serif;font-weight:700;font-size:40px;">rends</text>
            </g>
        </g>
        <g transform="matrix(1,0,0,1,54.74,153.385)">
            <text x="0px" y="0px" style="font-family:'Arial-BoldMT', 'Arial', sans-serif;font-weight:700;font-size:40px;">&quot;Deep Learning&quot;</text>
        </g>
    </g>
</svg>
